General
Complete name                            : WYWFM - AL 480p-cRcWoRLd.mp4
Format                                   : MPEG-4
Format profile                           : Base Media / Version 2
Codec ID                                 : mp42
File size                                : 29.1 MiB
Duration                                 : 3mn 45s
Overall bit rate mode                    : Variable
Overall bit rate                         : 1 081 Kbps
Encoded date                             : UTC 2012-08-22 22:14:27

Video
ID                                       : 1
Format                                   : AVC
Format/Info                              : Advanced Video Codec
Format profile                           : Baseline@L3.0
Format settings, CABAC                   : No
Format settings, ReFrames                : 2 frames
Codec ID                                 : avc1
Codec ID/Info                            : Advanced Video Coding
Duration                                 : 3mn 45s
Bit rate mode                            : Variable
Bit rate                                 : 950 Kbps
Width                                    : 720 pixels
Height                                   : 384 pixels
Display aspect ratio                     : 1.875
Frame rate mode                          : Variable
Frame rate                               : 30.000 fps
Minimum frame rate                       : 29.412 fps
Maximum frame rate                       : 30.303 fps
Color space                              : YUV
Chroma subsampling                       : 4:2:0
Bit depth                                : 8 bits
Scan type                                : Progressive
Bits/(Pixel*Frame)                       : 0.115
Stream size                              : 25.5 MiB (88%)
Writing library                          : x264 core 120

Audio
ID                                       : 2
Format                                   : AAC
Format/Info                              : Advanced Audio Codec
Format profile                           : LC
Codec ID                                 : 40
Duration                                 : 3mn 45s
Bit rate mode                            : Variable
Bit rate                                 : 128 Kbps
Maximum bit rate                         : 163 Kbps
Channel(s)                               : 2 channels
Channel positions                        : Front: L R
Sampling rate                            : 44.1 KHz
Compression mode                         : Lossy
Stream size                              : 3.44 MiB (12%)[/b]

screen- 
http://www.foto.pk/images/wywfmal480.jpg

try-
crcworldmovies . blogspot . com